<?xml version="1.0" encoding="utf-8"?>
<!-- Generator: Adobe Illustrator 16.0.4, SVG Export Plug-In . SVG Version: 6.00 Build 0)  -->
<!DOCTYPE svg PUBLIC "-//W3C//DTD SVG 1.1//EN" "http://www.w3.org/Graphics/SVG/1.1/DTD/svg11.dtd" [
	<!ENTITY ns_extend "http://ns.adobe.com/Extensibility/1.0/">
	<!ENTITY ns_ai "http://ns.adobe.com/AdobeIllustrator/10.0/">
	<!ENTITY ns_graphs "http://ns.adobe.com/Graphs/1.0/">
	<!ENTITY ns_vars "http://ns.adobe.com/Variables/1.0/">
	<!ENTITY ns_imrep "http://ns.adobe.com/ImageReplacement/1.0/">
	<!ENTITY ns_sfw "http://ns.adobe.com/SaveForWeb/1.0/">
	<!ENTITY ns_custom "http://ns.adobe.com/GenericCustomNamespace/1.0/">
	<!ENTITY ns_adobe_xpath "http://ns.adobe.com/XPath/1.0/">
]>
<svg version="1.1" id="Layer_1" xmlns:x="&ns_extend;" xmlns:i="&ns_ai;" xmlns:graph="&ns_graphs;"
	 xmlns="http://www.w3.org/2000/svg" xmlns:xlink="http://www.w3.org/1999/xlink" x="0px" y="0px" width="262.494px"
	 height="32.658px" viewBox="0 0 262.494 32.658" enable-background="new 0 0 262.494 32.658" xml:space="preserve">
<metadata>
	<sfw  xmlns="&ns_sfw;">
		<slices></slices>
		<sliceSourceBounds  height="16383" width="16383" x="-7000" y="-8986" bottomLeftOrigin="true"></sliceSourceBounds>
	</sfw>
</metadata>
<g>
	<g>
		<path fill="#1A1A1A" d="M11.747,7.759l-0.811,5.118h8.732l-1.068,6.742H9.867L7.961,31.643H0L4.855,1.016h17.588l-1.069,6.743
			H11.747z"/>
		<path fill="#1A1A1A" d="M53.438,1.016l-2.73,17.223c-0.624,3.94-1.405,7.84-4.922,10.805c-2.958,2.519-7.121,3.412-10.695,3.412
			s-7.454-0.894-9.613-3.412c-2.577-2.965-2.121-6.864-1.496-10.805l2.729-17.223h7.962l-2.557,16.126
			c-0.631,3.98-1.036,8.327,4.082,8.327s6.092-4.347,6.723-8.327l2.557-16.126H53.438z"/>
		<path fill="#1A1A1A" d="M66.623,31.643h-7.961l3.786-23.884h-6.58l1.068-6.743h21.122l-1.069,6.743h-6.58L66.623,31.643z"/>
		<path fill="#1A1A1A" d="M108.323,1.016l-2.73,17.223c-0.624,3.94-1.405,7.84-4.922,10.805c-2.958,2.519-7.121,3.412-10.695,3.412
			s-7.454-0.894-9.613-3.412c-2.577-2.965-2.121-6.864-1.496-10.805l2.729-17.223h7.962l-2.557,16.126
			c-0.631,3.98-1.036,8.327,4.082,8.327s6.092-4.347,6.723-8.327l2.557-16.126H108.323z"/>
		<path fill="#1A1A1A" d="M133.978,31.643h-9.911l-5.646-11.779h-0.081l-1.868,11.779h-7.961l4.855-30.627h11.901
			c6.052,0,10.185,2.884,9.147,9.424c-0.669,4.225-3.604,7.88-8.073,8.652L133.978,31.643z M119.149,14.745h0.772
			c2.6,0,5.602-0.487,6.129-3.818c0.528-3.33-2.319-3.818-4.919-3.818h-0.771L119.149,14.745z"/>
		<path fill="#1A1A1A" d="M147.882,7.759l-0.811,5.118h8.977l-1.069,6.742h-8.977l-0.837,5.28h9.464l-1.068,6.743h-17.426
			l4.855-30.627h17.425l-1.068,6.743H147.882z"/>
		<path fill="#1A1A1A" d="M191.734,14.542c-0.789,4.468-1.72,8.286-5.046,12.104c-3.669,4.184-8.468,6.012-13.586,6.012
			c-9.626,0-15.292-6.54-13.766-16.166C160.914,6.54,168.694,0,178.564,0c6.296,0,10.72,2.844,12.451,8.571l-8.057,3.168
			c-0.634-2.925-2.64-4.874-5.849-4.874c-5.239,0-8.753,4.996-9.494,9.667c-0.753,4.753,1.324,9.586,6.563,9.586
			c3.453,0,6.377-1.787,7.262-5.321h-6.499l0.992-6.255H191.734z"/>
		<path fill="#1A1A1A" d="M227.535,15.761c-1.571,9.911-9.787,16.897-19.617,16.897c-9.829,0-15.83-6.986-14.259-16.897
			C195.127,6.499,204.281,0,213.096,0C221.909,0,229.003,6.499,227.535,15.761z M201.938,15.801c-0.837,5.281,2.451,9.14,7.203,9.14
			s9.264-3.858,10.101-9.14c0.67-4.224-2.618-8.083-7.37-8.083C207.119,7.718,202.608,11.577,201.938,15.801z"/>
		<path fill="#1A1A1A" d="M243.46,19.619l10.383-18.604h8.651l-17.934,30.627h-6.175l-8.021-30.627h8.651L243.46,19.619z"/>
	</g>
</g>
</svg>
